HIERARCHY
ROOT Hips
{
	OFFSET 0.000000 0.000000 0.000000
	CHANNELS 6 Xposition Yposition Zposition Xrotation Yrotation Zrotation
	JOINT Thigh.L
	{
		OFFSET 0.055494 0.027456 -0.093490
		CHANNELS 3 Xrotation Yrotation Zrotation
		JOINT Shin.L
		{
			OFFSET 0.060253 0.007354 -0.410487
			CHANNELS 3 Xrotation Yrotation Zrotation
			JOINT Foot.L
			{
				OFFSET -0.042576 0.031803 -0.436284
				CHANNELS 3 Xrotation Yrotation Zrotation
				JOINT Toe.L
				{
					OFFSET 0.048087 -0.126093 -0.064338
					CHANNELS 3 Xrotation Yrotation Zrotation
					End Site
					{
						OFFSET 0.000000 0.050000 0.000000
					}
				}
			}
		}
	}
	JOINT Thigh.R
	{
		OFFSET -0.060649 0.021970 -0.105751
		CHANNELS 3 Xrotation Yrotation Zrotation
		JOINT Shin.R
		{
			OFFSET -0.049193 0.015205 -0.392253
			CHANNELS 3 Xrotation Yrotation Zrotation
			JOINT Foot.R
			{
				OFFSET 0.014522 0.019961 -0.445290
				CHANNELS 3 Xrotation Yrotation Zrotation
				JOINT Toe.R
				{
					OFFSET -0.039533 -0.126913 -0.064208
					CHANNELS 3 Xrotation Yrotation Zrotation
					End Site
					{
						OFFSET 0.000000 0.050000 0.000000
					}
				}
			}
		}
	}
	JOINT Spine
	{
		OFFSET -0.002639 0.027284 0.111813
		CHANNELS 3 Xrotation Yrotation Zrotation
		JOINT Spine.2
		{
			OFFSET 0.008736 0.006538 0.137119
			CHANNELS 3 Xrotation Yrotation Zrotation
			JOINT Chest
			{
				OFFSET -0.010703 -0.022841 0.054958
				CHANNELS 3 Xrotation Yrotation Zrotation
				JOINT Neck
				{
					OFFSET -0.011860 0.026299 0.169671
					CHANNELS 3 Xrotation Yrotation Zrotation
					JOINT Head
					{
						OFFSET 0.025006 -0.022276 0.173250
						CHANNELS 3 Xrotation Yrotation Zrotation
						End Site
						{
							OFFSET 0.000000 0.050000 0.000000
						}
					}
				}
				JOINT Clavicle.L
				{
					OFFSET 0.046941 0.005288 0.087113
					CHANNELS 3 Xrotation Yrotation Zrotation
					JOINT UpperArm.L
					{
						OFFSET 0.125954 0.013785 0.057844
						CHANNELS 3 Xrotation Yrotation Zrotation
						JOINT ForeArm.L
						{
							OFFSET 0.271660 0.042473 -0.076410
							CHANNELS 3 Xrotation Yrotation Zrotation
							JOINT Hand.L
							{
								OFFSET 0.275237 0.001524 0.021946
								CHANNELS 3 Xrotation Yrotation Zrotation
								JOINT Thumb1.L
								{
									OFFSET 0.154619 0.000662 0.009538
									CHANNELS 3 Xrotation Yrotation Zrotation
									JOINT Thumb2.L
									{
										OFFSET 0.029905 0.000166 0.002384
										CHANNELS 3 Xrotation Yrotation Zrotation
										End Site
										{
											OFFSET 0.024921 0.000138 0.001987
										}
									}
								}
								JOINT Index1.L
								{
									OFFSET 0.137619 0.000662 0.009538
									CHANNELS 3 Xrotation Yrotation Zrotation
									JOINT Index2.L
									{
										OFFSET 0.029905 0.000166 0.002384
										CHANNELS 3 Xrotation Yrotation Zrotation
										JOINT Index3.L
										{
											OFFSET 0.021930 0.000121 0.001749
											CHANNELS 3 Xrotation Yrotation Zrotation
											End Site
											{
												OFFSET 0.017943 0.000099 0.001431
											}
										}
									}
								}
								JOINT Middle1.L
								{
									OFFSET 0.119619 0.000662 0.009538
									CHANNELS 3 Xrotation Yrotation Zrotation
									JOINT Middle2.L
									{
										OFFSET 0.030901 0.000171 0.002464
										CHANNELS 3 Xrotation Yrotation Zrotation
										JOINT Middle3.L
										{
											OFFSET 0.021930 0.000121 0.001749
											CHANNELS 3 Xrotation Yrotation Zrotation
											End Site
											{
												OFFSET 0.017943 0.000099 0.001431
											}
										}
									}
								}
								JOINT Ring1.L
								{
									OFFSET 0.101619 0.000662 0.009538
									CHANNELS 3 Xrotation Yrotation Zrotation
									JOINT Ring2.L
									{
										OFFSET 0.028908 0.000160 0.002305
										CHANNELS 3 Xrotation Yrotation Zrotation
										JOINT Ring3.L
										{
											OFFSET 0.019936 0.000110 0.001590
											CHANNELS 3 Xrotation Yrotation Zrotation
											End Site
											{
												OFFSET 0.016946 0.000094 0.001351
											}
										}
									}
								}
								JOINT Pinky1.L
								{
									OFFSET 0.085619 0.000662 0.009538
									CHANNELS 3 Xrotation Yrotation Zrotation
									JOINT Pinky2.L
									{
										OFFSET 0.023924 0.000132 0.001908
										CHANNELS 3 Xrotation Yrotation Zrotation
										JOINT Pinky3.L
										{
											OFFSET 0.016946 0.000094 0.001351
											CHANNELS 3 Xrotation Yrotation Zrotation
											End Site
											{
												OFFSET 0.013955 0.000077 0.001113
											}
										}
									}
								}
							}
						}
					}
				}
				JOINT Clavicle.R
				{
					OFFSET -0.047575 0.011420 0.086169
					CHANNELS 3 Xrotation Yrotation Zrotation
					JOINT UpperArm.R
					{
						OFFSET -0.109236 0.009861 0.054277
						CHANNELS 3 Xrotation Yrotation Zrotation
						JOINT ForeArm.R
						{
							OFFSET -0.289968 0.027569 -0.041166
							CHANNELS 3 Xrotation Yrotation Zrotation
							JOINT Hand.R
							{
								OFFSET -0.271473 0.015072 -0.005550
								CHANNELS 3 Xrotation Yrotation Zrotation
								JOINT Thumb1.R
								{
									OFFSET -0.154791 0.006651 -0.002449
									CHANNELS 3 Xrotation Yrotation Zrotation
									JOINT Thumb2.R
									{
										OFFSET -0.029948 0.001663 -0.000612
										CHANNELS 3 Xrotation Yrotation Zrotation
										End Site
										{
											OFFSET -0.024956 0.001386 -0.000510
										}
									}
								}
								JOINT Index1.R
								{
									OFFSET -0.137791 0.006651 -0.002449
									CHANNELS 3 Xrotation Yrotation Zrotation
									JOINT Index2.R
									{
										OFFSET -0.029948 0.001663 -0.000612
										CHANNELS 3 Xrotation Yrotation Zrotation
										JOINT Index3.R
										{
											OFFSET -0.021962 0.001219 -0.000449
											CHANNELS 3 Xrotation Yrotation Zrotation
											End Site
											{
												OFFSET -0.017969 0.000998 -0.000367
											}
										}
									}
								}
								JOINT Middle1.R
								{
									OFFSET -0.119791 0.006651 -0.002449
									CHANNELS 3 Xrotation Yrotation Zrotation
									JOINT Middle2.R
									{
										OFFSET -0.030946 0.001718 -0.000633
										CHANNELS 3 Xrotation Yrotation Zrotation
										JOINT Middle3.R
										{
											OFFSET -0.021962 0.001219 -0.000449
											CHANNELS 3 Xrotation Yrotation Zrotation
											End Site
											{
												OFFSET -0.017969 0.000998 -0.000367
											}
										}
									}
								}
								JOINT Ring1.R
								{
									OFFSET -0.101791 0.006651 -0.002449
									CHANNELS 3 Xrotation Yrotation Zrotation
									JOINT Ring2.R
									{
										OFFSET -0.028949 0.001607 -0.000592
										CHANNELS 3 Xrotation Yrotation Zrotation
										JOINT Ring3.R
										{
											OFFSET -0.019965 0.001108 -0.000408
											CHANNELS 3 Xrotation Yrotation Zrotation
											End Site
											{
												OFFSET -0.016970 0.000942 -0.000347
											}
										}
									}
								}
								JOINT Pinky1.R
								{
									OFFSET -0.085791 0.006651 -0.002449
									CHANNELS 3 Xrotation Yrotation Zrotation
									JOINT Pinky2.R
									{
										OFFSET -0.023958 0.001330 -0.000490
										CHANNELS 3 Xrotation Yrotation Zrotation
										JOINT Pinky3.R
										{
											OFFSET -0.016970 0.000942 -0.000347
											CHANNELS 3 Xrotation Yrotation Zrotation
											End Site
											{
												OFFSET -0.013976 0.000776 -0.000286
											}
										}
									}
								}
							}
						}
					}
				}
			}
		}
	}
}
MOTION
Frames: 7
Frame Time: 0.04166667
0.009976 -0.053141 1.201016 -6.601982 -1.102775 1.336867 5.064166 -3.363495 4.863638 5.589149 0.820150 -2.000593 -8.441014 -2.897317 13.431703 -0.357373 -1.318651 -0.798198 0.538243 5.582403 -4.843225 13.359736 0.739076 -0.336362 -7.665850 -3.117795 -9.203605 -0.420128 -1.862085 0.340078 11.495826 -0.654106 0.986397 -7.339101 2.733561 -0.534411 6.696367 -0.309551 -0.373713 0.859673 0.216128 1.653865 4.720860 -0.716422 0.884610 -2.112185 18.625526 1.659052 24.770587 47.431823 -24.610525 19.121138 -2.478125 -29.384623 -1.114328 -2.900374 -12.317630 0.000000 0.000000 0.000000 0.000000 0.000000 0.000000 0.000000 0.000000 0.000000 0.000000 0.000000 0.000000 0.000000 0.000000 0.000000 0.000000 0.000000 0.000000 0.000000 0.000000 0.000000 0.000000 0.000000 0.000000 0.000000 0.000000 0.000000 0.000000 0.000000 0.000000 0.000000 0.000000 0.000000 0.000000 0.000000 0.000000 0.000000 0.000000 0.000000 0.000000 0.000000 0.000000 -1.916354 -17.531486 3.821501 31.165965 -50.384148 28.366670 10.788348 1.650196 30.755361 -3.781002 -0.410714 8.377067 0.000000 0.000000 0.000000 0.000000 0.000000 0.000000 0.000000 0.000000 0.000000 0.000000 0.000000 0.000000 0.000000 0.000000 0.000000 0.000000 0.000000 0.000000 0.000000 0.000000 0.000000 0.000000 0.000000 0.000000 0.000000 0.000000 0.000000 0.000000 0.000000 0.000000 0.000000 0.000000 0.000000 0.000000 0.000000 0.000000 0.000000 0.000000 0.000000 0.000000 0.000000 0.000000
0.009629 -0.056543 1.201316 -6.639973 -1.059703 1.120301 4.490940 -3.471093 4.764315 6.433708 0.974269 -1.893122 -8.414906 -2.939033 13.589091 -0.337370 -1.310629 -0.809671 0.250001 5.604290 -4.799213 13.477893 0.685786 -0.271543 -7.457240 -3.239837 -9.191816 -0.416577 -1.864996 0.356234 11.753892 -0.637016 1.025009 -7.454654 2.749405 -0.506757 6.715107 -0.290938 -0.346374 0.831207 0.234646 1.508258 4.681490 -0.724358 0.827917 -2.288099 18.703944 1.670987 24.535261 47.412135 -24.419980 19.271081 -2.626752 -29.287592 -0.778668 -2.650775 -12.356404 0.000000 0.000000 0.000000 0.000000 0.000000 0.000000 0.000000 0.000000 0.000000 0.000000 0.000000 0.000000 0.000000 0.000000 0.000000 0.000000 0.000000 0.000000 0.000000 0.000000 0.000000 0.000000 0.000000 0.000000 0.000000 0.000000 0.000000 0.000000 0.000000 0.000000 0.000000 0.000000 0.000000 0.000000 0.000000 0.000000 0.000000 0.000000 0.000000 0.000000 0.000000 0.000000 -2.005803 -17.575770 3.785134 30.766398 -50.353843 27.979609 11.219414 1.853420 30.747190 -3.341951 -0.712890 8.262339 0.000000 0.000000 0.000000 0.000000 0.000000 0.000000 0.000000 0.000000 0.000000 0.000000 0.000000 0.000000 0.000000 0.000000 0.000000 0.000000 0.000000 0.000000 0.000000 0.000000 0.000000 0.000000 0.000000 0.000000 0.000000 0.000000 0.000000 0.000000 0.000000 0.000000 0.000000 0.000000 0.000000 0.000000 0.000000 0.000000 0.000000 0.000000 0.000000 0.000000 0.000000 0.000000
0.010841 -0.060620 1.201401 -6.673609 -1.096128 0.939432 3.612386 -3.642738 4.653460 7.746505 1.230948 -1.693967 -8.406559 -2.927848 13.654033 -0.324230 -1.306199 -0.836823 -0.175883 5.725547 -4.835821 13.780964 0.514212 -0.223859 -7.360398 -3.294302 -9.126141 -0.427700 -1.837530 0.359888 12.003010 -0.637746 1.093900 -7.535549 2.777135 -0.444932 6.758091 -0.248914 -0.300732 0.848438 0.262808 1.218311 4.714430 -0.769614 0.662166 -2.374669 18.752607 1.724408 24.151198 47.261275 -23.911599 19.161801 -2.608656 -29.141769 -0.436696 -2.504418 -12.484131 0.000000 0.000000 0.000000 0.000000 0.000000 0.000000 0.000000 0.000000 0.000000 0.000000 0.000000 0.000000 0.000000 0.000000 0.000000 0.000000 0.000000 0.000000 0.000000 0.000000 0.000000 0.000000 0.000000 0.000000 0.000000 0.000000 0.000000 0.000000 0.000000 0.000000 0.000000 0.000000 0.000000 0.000000 0.000000 0.000000 0.000000 0.000000 0.000000 0.000000 0.000000 0.000000 -1.964951 -17.545004 3.658377 29.923429 -50.142905 26.972032 11.476581 1.861322 30.846659 -2.983100 -1.106919 8.164538 0.000000 0.000000 0.000000 0.000000 0.000000 0.000000 0.000000 0.000000 0.000000 0.000000 0.000000 0.000000 0.000000 0.000000 0.000000 0.000000 0.000000 0.000000 0.000000 0.000000 0.000000 0.000000 0.000000 0.000000 0.000000 0.000000 0.000000 0.000000 0.000000 0.000000 0.000000 0.000000 0.000000 0.000000 0.000000 0.000000 0.000000 0.000000 0.000000 0.000000 0.000000 0.000000
0.010258 -0.064536 1.200887 -6.691412 -1.104793 0.690598 2.375465 -3.846225 4.520171 9.761062 1.663773 -1.437319 -8.723409 -3.035213 13.742910 -0.313008 -1.282276 -0.843290 -0.858333 6.003568 -4.820091 14.507470 0.258926 -0.020381 -7.353047 -3.386631 -9.113457 -0.469586 -1.789668 0.370452 12.441139 -0.671115 1.128745 -7.811102 2.825821 -0.354547 6.963477 -0.204393 -0.259782 0.893997 0.337993 0.941253 4.658123 -0.910191 0.540837 -2.260887 18.607921 1.728875 23.648833 47.058753 -23.085448 19.069499 -2.571624 -28.754789 -0.045389 -2.442522 -12.600714 0.000000 0.000000 0.000000 0.000000 0.000000 0.000000 0.000000 0.000000 0.000000 0.000000 0.000000 0.000000 0.000000 0.000000 0.000000 0.000000 0.000000 0.000000 0.000000 0.000000 0.000000 0.000000 0.000000 0.000000 0.000000 0.000000 0.000000 0.000000 0.000000 0.000000 0.000000 0.000000 0.000000 0.000000 0.000000 0.000000 0.000000 0.000000 0.000000 0.000000 0.000000 0.000000 -1.859363 -17.305828 3.660773 28.523974 -49.649045 25.486511 11.535294 1.800411 31.035255 -2.801762 -1.633219 8.082902 0.000000 0.000000 0.000000 0.000000 0.000000 0.000000 0.000000 0.000000 0.000000 0.000000 0.000000 0.000000 0.000000 0.000000 0.000000 0.000000 0.000000 0.000000 0.000000 0.000000 0.000000 0.000000 0.000000 0.000000 0.000000 0.000000 0.000000 0.000000 0.000000 0.000000 0.000000 0.000000 0.000000 0.000000 0.000000 0.000000 0.000000 0.000000 0.000000 0.000000 0.000000 0.000000
0.008935 -0.067986 1.199668 -6.608473 -1.165931 0.507539 0.868040 -3.993788 4.385754 12.042613 2.204817 -1.100114 -9.210507 -3.208270 13.799217 -0.339198 -1.300508 -0.868823 -1.720063 6.375001 -4.709749 15.360810 0.026203 0.170588 -7.413848 -3.303821 -9.198188 -0.565727 -1.736223 0.364068 13.008657 -0.659997 1.117834 -8.047855 2.798325 -0.326098 7.073961 -0.054057 -0.251863 0.880454 0.412694 0.676947 4.653391 -0.999856 0.350541 -2.157067 18.533762 1.673317 22.698843 46.614650 -21.837631 18.646943 -2.529420 -28.015879 0.578038 -2.426433 -12.841355 0.000000 0.000000 0.000000 0.000000 0.000000 0.000000 0.000000 0.000000 0.000000 0.000000 0.000000 0.000000 0.000000 0.000000 0.000000 0.000000 0.000000 0.000000 0.000000 0.000000 0.000000 0.000000 0.000000 0.000000 0.000000 0.000000 0.000000 0.000000 0.000000 0.000000 0.000000 0.000000 0.000000 0.000000 0.000000 0.000000 0.000000 0.000000 0.000000 0.000000 0.000000 0.000000 -1.867300 -17.083452 3.564841 26.587374 -48.691277 23.415811 11.491141 1.787603 31.199043 -2.545639 -2.060021 8.110630 0.000000 0.000000 0.000000 0.000000 0.000000 0.000000 0.000000 0.000000 0.000000 0.000000 0.000000 0.000000 0.000000 0.000000 0.000000 0.000000 0.000000 0.000000 0.000000 0.000000 0.000000 0.000000 0.000000 0.000000 0.000000 0.000000 0.000000 0.000000 0.000000 0.000000 0.000000 0.000000 0.000000 0.000000 0.000000 0.000000 0.000000 0.000000 0.000000 0.000000 0.000000 0.000000
0.006526 -0.072735 1.197661 -6.586160 -1.199377 0.350207 -1.159604 -4.172210 4.165255 15.290952 2.798331 -1.006470 -9.840129 -3.515576 14.113282 -0.350156 -1.320879 -0.883400 -3.133578 6.841621 -4.433242 17.265383 -0.252567 0.695283 -7.706642 -3.209572 -9.491641 -0.670506 -1.670188 0.363423 13.742875 -0.646022 0.993764 -8.354159 2.829990 -0.297722 7.286123 0.066541 -0.317304 1.053742 0.614746 0.363126 4.506344 -1.062374 0.262083 -2.112153 18.345731 1.389435 21.062018 45.734022 -20.215540 18.206165 -2.466056 -26.849833 1.663689 -2.120876 -12.734591 0.000000 0.000000 0.000000 0.000000 0.000000 0.000000 0.000000 0.000000 0.000000 0.000000 0.000000 0.000000 0.000000 0.000000 0.000000 0.000000 0.000000 0.000000 0.000000 0.000000 0.000000 0.000000 0.000000 0.000000 0.000000 0.000000 0.000000 0.000000 0.000000 0.000000 0.000000 0.000000 0.000000 0.000000 0.000000 0.000000 0.000000 0.000000 0.000000 0.000000 0.000000 0.000000 -1.757036 -16.848675 3.585207 23.640808 -47.251983 20.534782 11.223597 1.949976 31.157803 -1.892189 -2.733404 7.831185 0.000000 0.000000 0.000000 0.000000 0.000000 0.000000 0.000000 0.000000 0.000000 0.000000 0.000000 0.000000 0.000000 0.000000 0.000000 0.000000 0.000000 0.000000 0.000000 0.000000 0.000000 0.000000 0.000000 0.000000 0.000000 0.000000 0.000000 0.000000 0.000000 0.000000 0.000000 0.000000 0.000000 0.000000 0.000000 0.000000 0.000000 0.000000 0.000000 0.000000 0.000000 0.000000
0.003355 -0.078032 1.194338 -6.573540 -1.140251 0.231057 -3.059882 -4.447073 4.041813 18.318522 3.369201 -0.995476 -10.839340 -3.944477 14.374795 -0.382672 -1.336532 -0.913929 -4.852755 7.238498 -4.084251 19.702152 -0.560377 1.221977 -8.269237 -2.994133 -9.803865 -0.811502 -1.695021 0.378104 14.623894 -0.674540 0.857582 -8.521672 2.735302 -0.288705 7.386743 0.235639 -0.349946 1.332920 0.773384 0.055845 4.592292 -1.044382 0.305996 -2.081707 18.238609 1.141715 18.468175 44.414499 -17.652935 16.903012 -2.170498 -25.117012 2.892932 -1.649585 -12.236059 0.000000 0.000000 0.000000 0.000000 0.000000 0.000000 0.000000 0.000000 0.000000 0.000000 0.000000 0.000000 0.000000 0.000000 0.000000 0.000000 0.000000 0.000000 0.000000 0.000000 0.000000 0.000000 0.000000 0.000000 0.000000 0.000000 0.000000 0.000000 0.000000 0.000000 0.000000 0.000000 0.000000 0.000000 0.000000 0.000000 0.000000 0.000000 0.000000 0.000000 0.000000 0.000000 -1.582777 -16.841958 3.518771 19.986710 -44.823000 17.043345 10.856430 2.033026 30.841892 -0.544405 -3.117926 7.514699 0.000000 0.000000 0.000000 0.000000 0.000000 0.000000 0.000000 0.000000 0.000000 0.000000 0.000000 0.000000 0.000000 0.000000 0.000000 0.000000 0.000000 0.000000 0.000000 0.000000 0.000000 0.000000 0.000000 0.000000 0.000000 0.000000 0.000000 0.000000 0.000000 0.000000 0.000000 0.000000 0.000000 0.000000 0.000000 0.000000 0.000000 0.000000 0.000000 0.000000 0.000000 0.000000
